<?xml version="1.0" encoding="UTF-8"?>
<svg id="Camada_1" data-name="Camada 1" xmlns="http://www.w3.org/2000/svg" viewBox="0 0 667.4 136.67">
  <defs>
    <style>
      .cls-1 {
        fill: #06bc42;
      }

      .cls-2 {
        fill: #fff;
      }

      .cls-3 {
        fill: #1ed760;
      }

      .cls-4 {
        stroke: #fff;
        stroke-miterlimit: 10;
        stroke-width: 6px;
      }
    </style>
  </defs>
  <g>
    <g>
      <path d="m197.69,72.6c0,37.82-28.5,61.27-66.32,61.27-18.91,0-11.16-25.57-23.55-37.97-12.39-12.39-44.21-8-44.21-26.91,0-37.82,27.78-64.88,65.6-64.88s68.48,30.66,68.48,68.48Z"/>
      <circle class="cls-2" cx="94.37" cy="34.4" r="9.61"/>
      <circle class="cls-3" cx="133.3" cy="22.38" r="9.61"/>
      <circle class="cls-1" cx="165.98" cy="41.61" r="9.61"/>
    </g>
    <path class="cls-4" d="m229.77,23.28l-9.15,5.9c-.3.19-.58.42-.84.68l-57.95,57.95c-1.14,1.14-1.67,2.75-1.42,4.35l.19,1.21c-1.99.1-4.13.6-6.01.33-5.06-.72-8.68-1.51-12.57,2.38-3.4,3.4-4.76,5.44-5.44,10.19-.33,2.28-1.62,10.96-2.56,15.89-.4,2.09-3.36,3.51-3.21,3.48.92-.16,4.67-.35,5.77-.55,5.75-1.06,12.92-1.83,15.64-1.83,5.7,0,7.23-1.11,11.55-5.44,3.89-3.89,3.1-9.55,2.38-14.61-.21-1.5.07-2.79.24-3.99l1.31.2c1.59.25,3.21-.28,4.35-1.42l58-58c.22-.22.42-.47.6-.73l6.06-8.89c3.11-4.56-2.28-10.09-6.92-7.1Z"/>
  </g>
  <g>
    <polygon points="281 80.92 264.22 43.03 249.12 43.03 272.86 94.03 288.84 94.03 312.57 43.03 297.68 43.03 281 80.92"/>
    <polygon points="331.47 43.03 317.4 43.03 317.4 94.03 363.3 94.03 363.3 81.51 331.47 81.51 331.47 43.03"/>
    <polygon points="356.15 55.54 375.6 55.54 375.6 94.03 389.75 94.03 389.75 55.54 409.19 55.54 409.19 43.03 356.15 43.03 356.15 55.54"/>
    <polygon points="446.12 43.03 422.93 94.03 437.96 94.03 455.43 53.72 472.84 94.03 487.87 94.03 464.68 43.03 446.12 43.03"/>
    <path d="m533.16,73.63c2.9-1.36,5.17-3.26,6.8-5.71,1.63-2.45,2.45-5.28,2.45-8.5s-.82-6.18-2.45-8.6c-1.63-2.42-3.9-4.33-6.8-5.71-2.9-1.38-6.3-2.07-10.2-2.07h-30.26v51h14.08v-18.36h7.38l13.7,18.36h16.32l-14.65-19.12c1.29-.32,2.5-.75,3.64-1.28Zm-26.38-20.13h14.21c2.27,0,4.03.51,5.3,1.53s1.9,2.48,1.9,4.39-.63,3.31-1.9,4.35c-1.27,1.04-3.04,1.56-5.3,1.56h-14.21v-11.83Z"/>
    <polygon points="545.6 55.54 565.05 55.54 565.05 94.03 579.19 94.03 579.19 55.54 598.64 55.54 598.64 43.03 545.6 43.03 545.6 55.54"/>
    <path d="m651.75,70.09c-1.32-1.95-3.42-3.48-6.32-4.59-2.9-1.11-6.78-1.89-11.63-2.35l-10.13-1.02c-2.9-.27-4.91-.77-6.02-1.5-1.11-.72-1.67-1.68-1.67-2.86,0-1.63.93-2.87,2.79-3.71,1.86-.84,4.38-1.26,7.55-1.26,2.36,0,4.37.24,6.05.71,1.68.48,3,1.16,3.98,2.04.97.88,1.55,1.94,1.73,3.16h14.28c-.18-3.35-1.39-6.3-3.64-8.84-2.24-2.54-5.27-4.5-9.08-5.88-3.81-1.38-8.16-2.07-13.06-2.07s-9.35.62-13.09,1.87c-3.74,1.25-6.64,3.09-8.7,5.54-2.06,2.45-3.09,5.44-3.09,8.98,0,4.35,1.59,7.81,4.76,10.37,3.17,2.56,8.27,4.16,15.3,4.79l9.52.88c3.22.32,5.39.84,6.53,1.56,1.13.73,1.7,1.75,1.7,3.06,0,1.72-1,3.03-2.99,3.91-2,.88-4.71,1.33-8.16,1.33-2.49,0-4.66-.28-6.49-.85-1.84-.57-3.3-1.37-4.39-2.41-1.09-1.04-1.75-2.27-1.97-3.67h-14.35c.14,3.54,1.34,6.65,3.6,9.35,2.27,2.7,5.41,4.78,9.42,6.26,4.01,1.47,8.65,2.21,13.91,2.21s9.61-.74,13.46-2.21c3.85-1.47,6.84-3.54,8.98-6.19,2.13-2.65,3.2-5.77,3.2-9.35,0-2.9-.66-5.33-1.97-7.28Z"/>
  </g>
</svg>